<svg width="21" height="21" viewBox="0 0 21 21" fill="none" xmlns="http://www.w3.org/2000/svg">
<path d="M14.8839 6.53676H16.2422C17.4605 6.53676 18.4754 7.43962 18.5766 8.6134L19.3574 17.6722C19.4712 18.9926 18.3935 20.125 17.023 20.125H3.37493C2.0045 20.125 0.926756 18.9926 1.04056 17.6722L1.82138 8.6134C1.92256 7.43962 2.93746 6.53676 4.15575 6.53676H5.51406M14.8839 6.53676H5.51406M14.8839 6.53676L14.8839 5.40441C14.8839 4.20314 14.3903 3.05106 13.5117 2.20163C12.6331 1.3522 11.4415 0.875 10.199 0.875C8.95646 0.875 7.76483 1.3522 6.88624 2.20163C6.00765 3.05106 5.51406 4.20314 5.51406 5.40441L5.51406 6.53676M14.8839 6.53676L14.8839 5.56618M5.51406 6.53676L5.51406 5.56618" stroke="white" stroke-width="1.74167" stroke-linecap="round" stroke-linejoin="round"/>
</svg>
