<svg width="44" height="43" viewBox="0 0 44 43" fill="none" xmlns="http://www.w3.org/2000/svg">
<rect x="0.75" width="43" height="43" rx="8" fill="#F5793B"/>
<path d="M26.8839 17.5368H28.2422C29.4605 17.5368 30.4754 18.4396 30.5766 19.6134L31.3574 28.6722C31.4712 29.9926 30.3935 31.125 29.023 31.125H15.3749C14.0045 31.125 12.9268 29.9926 13.0406 28.6722L13.8214 19.6134C13.9226 18.4396 14.9375 17.5368 16.1557 17.5368H17.5141M26.8839 17.5368H17.5141M26.8839 17.5368L26.8839 16.4044C26.8839 15.2031 26.3903 14.0511 25.5117 13.2016C24.6331 12.3522 23.4415 11.875 22.199 11.875C20.9565 11.875 19.7648 12.3522 18.8862 13.2016C18.0077 14.0511 17.5141 15.2031 17.5141 16.4044L17.5141 17.5368M26.8839 17.5368L26.8839 16.5662M17.5141 17.5368L17.5141 16.5662" stroke="white" stroke-width="1.74167" stroke-linecap="round" stroke-linejoin="round"/>
</svg>
