<svg width="34" height="33" viewBox="0 0 34 33" fill="none" xmlns="http://www.w3.org/2000/svg">
<rect x="0.75" width="33" height="33" rx="5" fill="#F5793B"/>
<path d="M20.8307 13.4375H21.8803C22.8217 13.4375 23.606 14.1352 23.6842 15.0422L24.2875 22.0422C24.3755 23.0625 23.5427 23.9375 22.4837 23.9375H11.9374C10.8785 23.9375 10.0457 23.0625 10.1336 22.0422L10.737 15.0422C10.8152 14.1352 11.5994 13.4375 12.5408 13.4375H13.5904M20.8307 13.4375H13.5904M20.8307 13.4375L20.8307 12.5625C20.8307 11.6342 20.4493 10.744 19.7704 10.0876C19.0915 9.43125 18.1707 9.0625 17.2106 9.0625C16.2504 9.0625 15.3296 9.43125 14.6507 10.0876C13.9718 10.744 13.5904 11.6342 13.5904 12.5625L13.5904 13.4375M20.8307 13.4375L20.8307 12.6875M13.5904 13.4375L13.5904 12.6875" stroke="white" stroke-width="1.34583" stroke-linecap="round" stroke-linejoin="round"/>
</svg>
