<svg width="22" height="20" viewBox="0 0 22 20" fill="none" xmlns="http://www.w3.org/2000/svg">
<path d="M17.2708 0.789394C18.0555 1.10816 18.7688 1.58388 19.3681 2.18817C22.1236 4.82616 21.7232 9.22282 18.5004 12.6532L17.4611 13.6871L15.1346 15.9966C14.1144 17.0015 13.3325 17.7746 12.7604 18.3254L12.1788 18.8761L11.9881 19.0597C11.634 19.3957 11.1669 19.5823 10.6819 19.5815C10.1808 19.5692 9.70469 19.3574 9.35651 18.9921L2.83469 12.5855C-0.340412 9.24215 -0.674131 4.77785 1.99562 2.18817C3.14286 1.02929 4.68844 0.365811 6.30799 0.336984C7.92755 0.308158 9.49517 0.91622 10.6819 2.03356C11.7879 0.950885 13.2632 0.341793 14.8009 0.332874C15.6461 0.31537 16.4861 0.470633 17.2708 0.789394Z" fill="#F5793B"/>
</svg>
