<svg width="22" height="20" viewBox="0 0 22 20" xmlns="http://www.w3.org/2000/svg">
<path d="M19.3681 2.18817C18.7688 1.58388 18.0555 1.10816 17.2708 0.789394C16.4861 0.470633 15.6461 0.31537 14.8009 0.332874C13.2632 0.341793 11.7879 0.950885 10.6819 2.03356C9.49517 0.91622 7.92755 0.308158 6.30799 0.336984C4.68844 0.365811 3.14286 1.02929 1.99562 2.18817C-0.674131 4.77785 -0.340412 9.24215 2.83469 12.5855L9.35651 18.9921C9.70469 19.3574 10.1808 19.5692 10.6819 19.5815C11.1669 19.5823 11.634 19.3957 11.9881 19.0597L12.1788 18.8761L12.7604 18.3254C13.3325 17.7746 14.1144 17.0015 15.1346 15.9966L17.4611 13.6871L18.5004 12.6532C21.7232 9.22282 22.1237 4.82616 19.3681 2.18817V2.18817ZM17.1274 11.2714L16.889 11.5033L16.1262 12.2667L13.7997 14.5761C12.8463 15.5424 12.0453 16.3058 11.4732 16.8566L10.6819 17.6489L4.16956 11.1941C1.72865 8.62372 1.4426 5.39628 3.3305 3.54099C3.73083 3.13429 4.2064 2.81162 4.72996 2.59146C5.25352 2.3713 5.8148 2.25797 6.38164 2.25797C6.94849 2.25797 7.50976 2.3713 8.03333 2.59146C8.55689 2.81162 9.03246 3.13429 9.43279 3.54099L9.5186 3.61829C9.62992 3.70397 9.73218 3.80112 9.82372 3.90818L10.6819 4.8165L11.54 3.90818L11.807 3.64728L11.9118 3.56031C12.3127 3.14924 12.79 2.82288 13.3162 2.60014C13.8424 2.3774 14.407 2.2627 14.9773 2.2627C15.5476 2.2627 16.1121 2.3774 16.6383 2.60014C17.1646 2.82288 17.6419 3.14924 18.0427 3.56031C19.9211 5.39628 19.6351 8.63338 17.1274 11.2714V11.2714Z" fill="#8F8F8F"/>
</svg>
