<svg width="59" height="22" viewBox="0 0 59 22" fill="none" xmlns="http://www.w3.org/2000/svg">
<rect y="6.10352e-05" width="59" height="22" rx="11" fill="#F5793B"/>
<path d="M11.43 6.20006H13.838L17.282 16.0001H15.322L14.566 13.6901H10.702L9.946 16.0001H7.972L11.43 6.20006ZM14.09 12.1781L12.69 8.03406H12.578L11.164 12.1781H14.09ZM18.4455 6.20006H20.2935V10.3721H20.3775L24.0175 6.20006H26.1455L22.0575 10.7081L26.4815 16.0001H24.2275L20.3775 11.2821H20.2935V16.0001H18.4455V6.20006ZM34.6314 16.0001H27.7014V6.20006H29.5354V14.3761H33.4134V6.20006H35.2474V14.3761H36.3814V17.8901H34.6314V16.0001ZM37.8866 6.20006H39.7206V16.0001H37.8866V6.20006ZM43.3729 12.1501C42.7755 11.8981 42.2995 11.5341 41.9449 11.0581C41.5902 10.5821 41.4129 10.0267 41.4129 9.39206V9.18206C41.4129 8.71539 41.5015 8.30006 41.6789 7.93606C41.8655 7.56273 42.1222 7.25006 42.4489 6.99806C42.7849 6.73673 43.1862 6.54073 43.6529 6.41006C44.1195 6.27006 44.6422 6.20006 45.2209 6.20006H48.8889V16.0001H47.0549V12.5561H45.0949L43.1769 16.0001H41.1049L43.3729 12.1501ZM47.1109 7.76806H45.3889C44.7355 7.76806 44.2222 7.89873 43.8489 8.16006C43.4849 8.42139 43.3029 8.79473 43.3029 9.28006V9.44806C43.3029 9.94273 43.4849 10.3441 43.8489 10.6521C44.2129 10.9601 44.7309 11.1141 45.4029 11.1141H47.1109V7.76806Z" fill="white"/>
</svg>
