<svg width="45" height="22" viewBox="0 0 45 22" fill="none" xmlns="http://www.w3.org/2000/svg">
<rect y="6.10352e-05" width="45" height="22" rx="11" fill="#EA2323"/>
<path d="M10.968 7.82406H8.224V6.20006H15.56V7.82406H12.802V16.0001H10.968V7.82406ZM15.8338 11.0581C15.8338 10.3394 15.9504 9.67206 16.1838 9.05606C16.4264 8.44006 16.7624 7.90806 17.1918 7.46006C17.6211 7.01206 18.1298 6.66206 18.7178 6.41006C19.3151 6.15806 19.9638 6.03206 20.6638 6.03206H20.7618C21.4618 6.03206 22.1058 6.15806 22.6938 6.41006C23.2911 6.66206 23.8044 7.01206 24.2338 7.46006C24.6631 7.90806 24.9944 8.44006 25.2278 9.05606C25.4704 9.66273 25.5918 10.3254 25.5918 11.0441V11.1561C25.5918 11.8747 25.4704 12.5421 25.2278 13.1581C24.9944 13.7647 24.6631 14.2921 24.2338 14.7401C23.8044 15.1881 23.2911 15.5381 22.6938 15.7901C22.1058 16.0421 21.4618 16.1681 20.7618 16.1681H20.6638C19.9638 16.1681 19.3151 16.0421 18.7178 15.7901C18.1298 15.5287 17.6211 15.1741 17.1918 14.7261C16.7718 14.2781 16.4404 13.7461 16.1978 13.1301C15.9551 12.5141 15.8338 11.8514 15.8338 11.1421V11.0581ZM17.7378 11.1421C17.7378 11.6461 17.8078 12.1081 17.9478 12.5281C18.0971 12.9387 18.3024 13.2934 18.5638 13.5921C18.8251 13.8814 19.1331 14.1101 19.4878 14.2781C19.8518 14.4367 20.2484 14.5161 20.6778 14.5161H20.7758C21.1958 14.5161 21.5831 14.4367 21.9378 14.2781C22.2924 14.1101 22.6004 13.8814 22.8618 13.5921C23.1231 13.2934 23.3238 12.9387 23.4638 12.5281C23.6131 12.1081 23.6878 11.6461 23.6878 11.1421V11.0581C23.6878 10.5541 23.6131 10.0967 23.4638 9.68606C23.3238 9.26606 23.1231 8.90673 22.8618 8.60806C22.6098 8.30939 22.3018 8.08073 21.9378 7.92206C21.5831 7.75406 21.1911 7.67006 20.7618 7.67006H20.6638C20.2438 7.67006 19.8518 7.75406 19.4878 7.92206C19.1331 8.08073 18.8251 8.30939 18.5638 8.60806C18.3024 8.90673 18.0971 9.26606 17.9478 9.68606C17.8078 10.0967 17.7378 10.5541 17.7378 11.0581V11.1421ZM27.3459 6.20006H35.0739V16.0001H33.2399V7.82406H29.1799V16.0001H27.3459V6.20006Z" fill="white"/>
</svg>
