<svg width="34" height="33" viewBox="0 0 34 33" fill="none" xmlns="http://www.w3.org/2000/svg">
<rect x="1.44434" y="0.500122" width="32" height="32" rx="16" fill="white"/>
<rect x="1.44434" y="0.500122" width="32" height="32" rx="16" stroke="#E5E3D4"/>
<path d="M24.4209 10.1762C23.9357 9.68697 23.3583 9.30186 22.7231 9.04382C22.0879 8.78577 21.4079 8.66009 20.7236 8.67426C19.4788 8.68148 18.2846 9.17455 17.3892 10.051C16.4285 9.14649 15.1595 8.65425 13.8484 8.67758C12.5374 8.70092 11.2862 9.23802 10.3575 10.1762C8.19623 12.2726 8.46638 15.8865 11.0367 18.5931L16.3163 23.7793C16.5981 24.0751 16.9836 24.2465 17.3892 24.2565C17.7818 24.2571 18.16 24.1061 18.4466 23.8341L18.601 23.6855L19.0718 23.2396C19.535 22.7937 20.1679 22.1679 20.9938 21.3544L22.8771 19.4848L23.7185 18.6478C26.3274 15.8709 26.6516 12.3117 24.4209 10.1762ZM22.607 17.5292L22.414 17.717L21.7965 18.3349L19.9132 20.2045C19.1413 20.9867 18.4929 21.6047 18.0298 22.0506L17.3892 22.692L12.1173 17.4667C10.1413 15.3859 9.90978 12.7732 11.4381 11.2713C11.7622 10.9421 12.1471 10.6809 12.571 10.5026C12.9948 10.3244 13.4492 10.2327 13.908 10.2327C14.3669 10.2327 14.8213 10.3244 15.2451 10.5026C15.669 10.6809 16.0539 10.9421 16.378 11.2713L16.4475 11.3339C16.5376 11.4032 16.6204 11.4819 16.6945 11.5685L17.3892 12.3039L18.0838 11.5685L18.3 11.3573L18.3849 11.2869C18.7094 10.9542 19.0958 10.69 19.5218 10.5097C19.9477 10.3293 20.4048 10.2365 20.8664 10.2365C21.3281 10.2365 21.7851 10.3293 22.2111 10.5097C22.6371 10.69 23.0235 10.9542 23.348 11.2869C24.8686 12.7732 24.637 15.3937 22.607 17.5292Z" fill="#8F8F8F"/>
</svg>
