<svg width="34" height="33" viewBox="0 0 34 33" fill="none" xmlns="http://www.w3.org/2000/svg">
<rect x="1.44434" y="0.5" width="32" height="32" rx="16" fill="white"/>
<rect x="1.44434" y="0.5" width="32" height="32" rx="16" stroke="#E5E3D4"/>
<path d="M22.7231 9.04374C23.3583 9.30178 23.9357 9.68689 24.4209 10.1761C26.6516 12.3116 26.3274 15.8708 23.7185 18.6478L22.8771 19.4848L20.9938 21.3543C20.1679 22.1678 19.535 22.7936 19.0718 23.2395L18.601 23.6854L18.4466 23.834C18.16 24.106 17.7818 24.257 17.3892 24.2564C16.9836 24.2464 16.5981 24.075 16.3163 23.7793L11.0367 18.593C8.46638 15.8864 8.19623 12.2725 10.3575 10.1761C11.2862 9.23794 12.5374 8.70084 13.8484 8.6775C15.1595 8.65416 16.4285 9.14641 17.3892 10.0509C18.2846 9.17447 19.4788 8.68139 20.7236 8.67417C21.4079 8.66 22.0879 8.78569 22.7231 9.04374Z" fill="#F5793B"/>
</svg>
